<svg fill="#fff" id="Layer_1" enable-background="new 0 0 512 512" height="512" viewBox="0 0 512 512" width="512" xmlns="http://www.w3.org/2000/svg"><g><g><path d="m286.981 305.929 3.614-2.8c33.568-26.066 54.441-64.753 58.259-106.442 50.656-4.016 90.646-46.518 90.646-98.187 0-17.691-4.746-35.043-13.726-50.182-2.112-3.563-6.714-4.738-10.276-2.625-3.563 2.113-4.737 6.714-2.624 10.277 7.605 12.824 11.626 27.53 11.626 42.53 0 43.18-32.947 78.81-75.022 83.072-.019-2.366-.075-4.736-.205-7.111l-.009-.129-3.944-54.764c-.282-3.923-3.548-6.961-7.48-6.961h-79.123c-.785-4.589-1.216-9.297-1.216-14.107 0-46.042 37.458-83.5 83.5-83.5 19.205 0 37.954 6.679 52.795 18.806 3.21 2.622 7.935 2.145 10.554-1.062 2.621-3.208 2.146-7.932-1.062-10.553-17.514-14.31-39.634-22.191-62.288-22.191-54.313 0-98.5 44.187-98.5 98.5 0 4.79.351 9.498 1.014 14.107h-83.514c-4.143 0-7.5 3.358-7.5 7.5s3.357 7.5 7.5 7.5h86.891c11.76 37.944 45.883 66.144 86.893 69.128-1.385 13.574-4.774 26.781-9.988 39.207-8.977-8.84-25.483-20.744-49.274-20.744-5.811 0-11.621.984-17.414 2.644.251-2.09.391-4.204.391-6.341 0-28.949-23.552-52.5-52.5-52.5s-52.5 23.551-52.5 52.5c0 1.265.057 2.516.144 3.76-22.287.883-37.744 12.026-46.452 20.653-7.914-18.873-11.63-39.542-10.49-60.571l3.438-47.735h28.54c4.143 0 7.5-3.358 7.5-7.5s-3.357-7.5-7.5-7.5h-35.52c-3.933 0-7.198 3.038-7.48 6.961l-3.944 54.764-.009.129c-2.731 49.916 19.204 98.016 58.677 128.668l3.614 2.8c32.95 25.499 49.489 38.298 49.489 105.692v26.668c0 15.832-12.872 28.711-28.693 28.711h-60.115c-17.202-.001-31.198 14-31.198 31.21 0 7.603 6.184 13.789 13.785 13.789h169.715c4.143 0 7.5-3.358 7.5-7.5s-3.357-7.5-7.5-7.5h-168.455c.621-8.375 7.629-15 16.154-15h60.115c24.093 0 43.693-19.609 43.693-43.711v-26.668c0-41.428-6.761-65.123-18.456-82.406 8.795 2.606 17.519 3.995 25.947 3.995 8.378 0 17.08-1.336 25.862-3.866-11.641 17.272-18.368 40.952-18.368 82.278v26.668c0 24.103 19.601 43.711 43.693 43.711h60.115c8.525 0 15.533 6.625 16.154 15h-54.031c-4.143 0-7.5 3.358-7.5 7.5s3.357 7.5 7.5 7.5h55.291c7.602 0 13.785-6.186 13.785-13.789 0-17.21-13.996-31.211-31.199-31.211h-60.115c-15.821 0-28.693-12.88-28.693-28.711v-26.668c0-67.395 16.539-80.194 49.489-105.693zm-24.238-178.322h68.116l3.438 47.735c.116 2.131.165 4.257.182 6.379-32.965-2.561-60.621-24.329-71.736-54.114zm-57.743 46.393c20.678 0 37.5 16.822 37.5 37.5 0 4.453-.774 8.768-2.28 12.87-8.243 3.887-16.419 8.581-24.479 13.211-6.602 3.792-13.017 7.476-19.09 10.478-13.677-3.082-24.198-13.388-27.802-26.504-.043-.204-.093-.406-.153-.604-.777-3.025-1.197-6.191-1.197-9.451.001-20.678 16.823-37.5 37.501-37.5zm-29.312 81.118c-22.24 3.256-46.338-3.866-58.935-8.505 7.02-6.895 20.083-16.412 38.728-16.412.14 0 .286.013.426.015 3.853 10.185 10.784 18.879 19.781 24.902zm-19.176 42.292c-1.416-1.102-7.909-6.129-7.909-6.129-10.088-7.833-18.901-16.934-26.302-26.975 11.528 3.481 26.217 6.663 41.413 6.663 6.438 0 12.965-.571 19.38-1.932 5.774-1.225 11.681-3.484 17.733-6.339.024-.011.047-.023.071-.034 7.224-3.413 14.653-7.675 22.314-12.076 8.511-4.889 17.163-9.856 25.629-13.666.204-.082.404-.171.601-.271 8.682-3.853 17.16-6.453 25.08-6.453 22.349 0 36.565 13.483 42.216 20.138-8.831 15.644-20.755 29.618-35.342 40.946 0 0-6.496 5.03-7.913 6.133-19.067 13.137-40.37 20.796-58.485 20.796-18.114-.002-39.418-7.662-58.486-20.801z"/><path d="m334.5 38v16c0 4.142 3.357 7.5 7.5 7.5s7.5-3.358 7.5-7.5v-16c0-4.142-3.357-7.5-7.5-7.5s-7.5 3.358-7.5 7.5z"/><path d="m318.551 67.752c1.272 0 2.563-.324 3.743-1.006 3.587-2.071 4.816-6.658 2.745-10.245l-8-13.856c-2.07-3.588-6.66-4.817-10.245-2.745-3.587 2.071-4.816 6.658-2.745 10.245l8 13.856c1.389 2.406 3.91 3.751 6.502 3.751z"/><path d="m367.049 159.264c1.389 2.406 3.91 3.751 6.502 3.751 1.272 0 2.563-.324 3.743-1.006 3.587-2.071 4.816-6.658 2.745-10.245l-8-13.856c-2.071-3.587-6.66-4.816-10.245-2.745-3.587 2.071-4.816 6.658-2.745 10.245z"/><path d="m307.85 81.142c2.071-3.587.842-8.174-2.745-10.245l-13.856-8c-3.59-2.072-8.175-.842-10.245 2.745-2.071 3.587-.842 8.174 2.745 10.245l13.856 8c1.182.682 2.471 1.006 3.743 1.006 2.591.001 5.113-1.345 6.502-3.751z"/><path d="m396.611 139.894c2.592 0 5.113-1.346 6.502-3.751 2.071-3.587.842-8.174-2.745-10.245l-13.856-8c-3.589-2.072-8.175-.842-10.245 2.745-2.071 3.587-.842 8.174 2.745 10.245l13.856 8c1.182.681 2.471 1.006 3.743 1.006z"/><path d="m295.04 93.332h-16c-4.143 0-7.5 3.358-7.5 7.5s3.357 7.5 7.5 7.5h16c4.143 0 7.5-3.358 7.5-7.5s-3.357-7.5-7.5-7.5z"/><path d="m412.54 100.832c0-4.142-3.357-7.5-7.5-7.5h-16c-4.143 0-7.5 3.358-7.5 7.5s3.357 7.5 7.5 7.5h16c4.143 0 7.5-3.358 7.5-7.5z"/><path d="m376.202 81.038c1.389 2.406 3.91 3.751 6.502 3.751 1.272 0 2.563-.324 3.743-1.006l13.856-8c3.587-2.071 4.816-6.658 2.745-10.245-2.07-3.588-6.659-4.817-10.245-2.745l-13.856 8c-3.587 2.071-4.816 6.658-2.745 10.245z"/><path d="m377.182 39.719c-3.586-2.072-8.175-.843-10.245 2.745l-8 13.856c-2.071 3.587-.842 8.174 2.745 10.245 1.181.682 2.471 1.006 3.743 1.006 2.592 0 5.113-1.345 6.502-3.751l8-13.856c2.071-3.587.842-8.174-2.745-10.245z"/></g></g></svg>